<svg xmlns="http://www.w3.org/2000/svg" viewBox="0 0 150 169"><defs><style>.cls-1{fill:#435eac;}.cls-2{fill:#c6c4c4;}.cls-3{fill:#ac5555;}.cls-4{fill:#c6704d;}</style></defs><title>code</title><g id="Layer_2" data-name="Layer 2"><g id="Layer_1-2" data-name="Layer 1"><rect class="cls-1" width="40" height="15" rx="7.5" ry="7.5"/><rect class="cls-2" x="44" width="40" height="15" rx="7.5" ry="7.5"/><rect class="cls-2" x="20" y="22" width="60" height="15" rx="7.5" ry="7.5"/><rect class="cls-2" x="85" y="22" width="40" height="15" rx="7.5" ry="7.5"/><rect class="cls-3" y="44" width="40" height="15" rx="7.5" ry="7.5"/><rect class="cls-2" x="45" y="44" width="60" height="15" rx="7.5" ry="7.5"/><rect class="cls-2" x="110" y="44" width="40" height="15" rx="7.5" ry="7.5"/><rect class="cls-2" x="20" y="66" width="100" height="15" rx="7.5" ry="7.5"/><rect class="cls-2" x="20" y="88" width="80" height="15" rx="7.5" ry="7.5"/><rect class="cls-4" y="110" width="70" height="15" rx="7.5" ry="7.5"/><rect class="cls-2" x="20" y="132" width="120" height="15" rx="7.5" ry="7.5"/><rect class="cls-2" x="105" y="88" width="40" height="15" rx="7.5" ry="7.5"/><rect class="cls-2" x="40" y="154" width="40" height="15" rx="7.5" ry="7.5"/><rect class="cls-2" x="85" y="154" width="40" height="15" rx="7.5" ry="7.5"/><rect class="cls-2" x="76" y="110" width="40" height="15" rx="7.5" ry="7.5"/></g></g></svg>