<svg xmlns="http://www.w3.org/2000/svg" xmlns:xlink="http://www.w3.org/1999/xlink" viewBox="0 0 228 257.82"><defs><style>.cls-1{fill:url(#linear-gradient);}</style><linearGradient id="linear-gradient" x1="114" y1="257.82" x2="114" gradientUnits="userSpaceOnUse"><stop offset="0" stop-color="#7fffb2"/><stop offset="1" stop-color="#55a7ff"/></linearGradient></defs><title>darryl-box</title><g id="Layer_2" data-name="Layer 2"><g id="Layer_1-2" data-name="Layer 1"><path class="cls-1" d="M114,257.82a17.58,17.58,0,0,1-8.78-2.34L8.78,199.8A17.63,17.63,0,0,1,0,184.59V73.23A17.63,17.63,0,0,1,8.78,58L105.22,2.35a17.59,17.59,0,0,1,17.56,0L219.22,58A17.63,17.63,0,0,1,228,73.23V184.59a17.63,17.63,0,0,1-8.78,15.21l-96.44,55.68A17.58,17.58,0,0,1,114,257.82ZM114,15a2.54,2.54,0,0,0-1.28.35L16.28,71A2.58,2.58,0,0,0,15,73.23V184.59a2.58,2.58,0,0,0,1.28,2.22l96.44,55.68a2.6,2.6,0,0,0,2.56,0l96.44-55.68a2.58,2.58,0,0,0,1.28-2.22V73.23A2.58,2.58,0,0,0,211.72,71L115.28,15.34A2.54,2.54,0,0,0,114,15Zm.79,8.07,71.33,41.37q7.14,4.14,7.29,9.87t-6.85,9.75l-53.37,30.62q-7,4-16.94,3.91a34.25,34.25,0,0,1-17.06-4.26L27.85,73Zm2,82.13L170.2,74.56c.56-.32.56-.65,0-1L116,42.12a1.62,1.62,0,0,0-1.71,0L60.87,72.73c-.56.33-.56.65,0,1l54.24,31.45A1.58,1.58,0,0,0,116.83,105.19ZM38.08,89.92l54.51,31.47a34.27,34.27,0,0,1,12.23,12.75q5.07,8.63,5.07,16.77v81.61L93.45,223V189L37.21,156.57v34L20.9,181.14V99.53q0-8.15,5-11T38.08,89.92ZM37.21,138l56.24,32.47V141.42a1.62,1.62,0,0,0-.86-1.49L38.08,108.46c-.58-.33-.87-.17-.87.49Zm145.68-37.38-46.72,81.81,31.12-22.66Zm-20.8,56.12L146.5,215.92l46.71-81.82"/></g></g></svg>